<svg width="1074" height="1518" viewBox="0 0 1074 1518" fill="none" xmlns="http://www.w3.org/2000/svg">
<g opacity="0.05" clip-path="url(#clip0)">
<path d="M675.463 1356.27C557.271 1400.98 453.165 1401.5 349.324 1364C243.4 1325.77 164.076 1256.14 109.207 1157.81C69.5748 1086.73 56.0445 1009.08 47.581 929.709C39.4682 853.885 47.0448 778.868 55.4377 703.687C63.711 626.415 67.6283 548.739 67.1709 471.028C67.1211 400.31 79.1446 331.383 107.543 266.244C127.728 220.037 155.303 179.586 203.102 157.249C239.389 140.193 276.786 141.864 314 152.63C393.036 175.341 455.836 223.887 509.901 283.202C572.909 352.523 632.619 424.901 702.121 488.112C774.463 553.532 836.198 629.795 885.119 714.173C993.119 900.722 957.981 1130.54 803.72 1273.53C761.619 1312.22 714.232 1341.68 675.463 1356.27Z" fill="black"/>
</g>
<defs>
<clipPath id="clip0">
<rect width="893" height="1289" fill="white" transform="translate(-207 306.282) rotate(-20.0586)"/>
</clipPath>
</defs>
</svg>
