<svg xmlns="http://www.w3.org/2000/svg" viewBox="0 0 648.33 394.6"><g id="Layer_2" data-name="Layer 2"><g id="Layer_1-2" data-name="Layer 1"><path d="M53.91,339c0,19.84-12.95,31.87-34,31.87H0v-64H19.93C41,306.89,53.91,319.2,53.91,339Zm-34,25c16.72,0,25.44-9.37,25.44-25s-8.72-25.35-25.44-25.35H8.36V364Z"/><path d="M85.69,319.75c9.37,0,15.8,4.78,18.74,10v-9.18h8.45v50.33h-8.45v-9.37c-3,5.42-9.56,10.19-18.83,10.19-13.41,0-23.79-10.56-23.79-26.17S72.19,319.75,85.69,319.75ZM87.34,327c-9.18,0-17,6.7-17,18.55s7.81,18.83,17,18.83,17.09-6.89,17.09-18.74C104.43,334,96.53,327,87.34,327Z"/><path d="M125.64,306.71a5.61,5.61,0,1,1,5.7,5.69A5.61,5.61,0,0,1,125.64,306.71ZM127,320.58h8.36v50.33H127Z"/><path d="M149.61,302.94H158v68h-8.36Z"/><path d="M206.92,320.58h8.64l-30.31,74h-8.64l9.92-24.24-20.29-49.78h9.27l15.8,40.78Z"/><path d="M286.28,356.67H258.35l-5.14,14.24H244.4l23.14-63.65h9.64l23.06,63.65h-8.82Zm-14-39.12-11.58,32.33h23.15Z"/><path d="M313.37,320.58l15.71,42.61,15.61-42.61h8.91l-19.75,50.33h-9.73l-19.75-50.33Z"/><path d="M383.81,371.73c-14.23,0-25.07-10.1-25.07-26.08s11.21-25.9,25.44-25.9,25.44,10,25.44,25.9S398.14,371.73,383.81,371.73Zm0-7.34c8.73,0,17.27-6,17.27-18.74s-8.36-18.64-17-18.64c-8.82,0-16.81,6-16.81,18.64S375.09,364.39,383.81,364.39Z"/><path d="M442,319.75c12.49,0,20.67,6.43,23.24,17h-9c-1.75-6.06-6.8-9.92-14.24-9.92-9.18,0-16,6.52-16,18.83,0,12.49,6.8,19,16,19,7.44,0,12.4-3.58,14.24-9.92h9c-2.57,10-10.75,17-23.24,17-14.32,0-24.52-10.1-24.52-26.08C417.52,329.85,427.72,319.75,442,319.75Z"/><path d="M497.15,319.75c9.37,0,15.8,4.78,18.74,10v-9.18h8.45v50.33h-8.45v-9.37c-3,5.42-9.56,10.19-18.83,10.19-13.41,0-23.79-10.56-23.79-26.17S483.65,319.75,497.15,319.75ZM498.8,327c-9.18,0-17,6.7-17,18.55s7.81,18.83,17,18.83,17.09-6.89,17.09-18.74C515.89,334,508,327,498.8,327Z"/><path d="M559.33,319.75c7.9,0,15.15,4,18.64,9.83V302.94h8.45v68H578v-9.46c-3,5.6-9.55,10.28-18.73,10.28-13.5,0-23.88-10.56-23.88-26.17S545.74,319.75,559.33,319.75Zm1.56,7.26c-9.18,0-17,6.7-17,18.55s7.81,18.83,17,18.83S578,357.5,578,345.65C578,334,570.07,327,560.89,327Z"/><path d="M622.52,371.73c-14.24,0-25.07-10.1-25.07-26.08s11.2-25.9,25.44-25.9,25.44,10,25.44,25.9S636.85,371.73,622.52,371.73Zm0-7.34c8.72,0,17.26-6,17.26-18.74s-8.35-18.64-17-18.64c-8.81,0-16.8,6-16.8,18.64S613.79,364.39,622.52,364.39Z"/><path d="M409.58,151.79A189.74,189.74,0,0,0,390.7,96.72C384.47,84.83,379.42,72,374.55,59.66l-.08-.18c-1.63-4.14-3.31-8.41-5-12.61-7.09-17.38-16.52-30.2-28.82-39.19-8-5.82-15.87-8.3-24.16-7.55C303.12,1.32,294,9.37,288.38,15.31A104.06,104.06,0,0,0,266.2,51.89,397.25,397.25,0,0,1,248.75,93.1c-7.12,14.32-13.31,27.36-16.91,41.87-3.7,14.89-6.76,31-4.05,47.91,3.7,23.15,14.45,42.3,32,56.94s37.33,21.59,62,21.59h1.52c9.26-.1,20.53-2.65,30.92-7C394.5,237.48,417.26,195.29,409.58,151.79Zm-59.43,92.9c-9,3.8-19.12,6.11-27,6.2-22.78.26-40.79-5.83-56.71-19.14-15.49-13-25-30-28.31-50.53-2.41-15.05.44-29.91,3.87-43.72,3.35-13.47,9.29-26,16.13-39.72a408.07,408.07,0,0,0,17.91-42.3A93.42,93.42,0,0,1,296,22.57c7.24-7.6,13.84-11.29,21.41-12q1-.09,1.92-.09c5,0,9.82,1.8,15.09,5.66,10.69,7.8,19,19.15,25.3,34.68,1.72,4.2,3.41,8.51,5.06,12.68,5,12.63,10.13,25.69,16.62,38.07a179.05,179.05,0,0,1,17.84,52C406,192.25,385.87,229.7,350.15,244.69Z"/><path d="M338.53,118.33c-11.79-11.62-27.11-11.69-39-.17-13.37,12.9-21.22,29.21-23.33,48.49a42.62,42.62,0,0,0,12.42,35.24A43.7,43.7,0,0,0,319,214.37a41.06,41.06,0,0,0,5.21-.33,43.38,43.38,0,0,0,26.37-13.77,42.66,42.66,0,0,0,11.36-28.78,35.74,35.74,0,0,0-.55-6.61C358.68,146.3,351,130.64,338.53,118.33Zm12.88,52.77v.21a32.19,32.19,0,0,1-8.59,21.84,32.29,32.29,0,0,1-46.87,1.25,31.72,31.72,0,0,1-9.33-26.61c1.83-16.77,8.61-30.92,20.17-42.06,3.74-3.62,8-5.52,12.17-5.52s8.47,1.94,12.19,5.61c11,10.81,17.44,24.08,19.82,40.59A29.13,29.13,0,0,1,351.41,171.1Z"/></g></g></svg>