<svg xmlns="http://www.w3.org/2000/svg" viewBox="0 0 809.91 1148.74"><defs><style>.cls-1{fill:#004165;}</style></defs><g id="Layer_2" data-name="Layer 2"><g id="Layer_1-2" data-name="Layer 1"><path class="cls-1" d="M803.4,667a832.87,832.87,0,0,0-83-242c-27.39-52.25-49.55-108.46-71-162.83l-.32-.81C642,243.19,634.56,224.4,627,206,595.86,129.59,554.42,73.25,500.35,33.74,465.35,8.16,430.65-2.71,394.19.57c-58.62,5.24-98.5,40.59-123.39,66.72-41.85,43.92-74.64,98-97.48,160.72-24.6,67.61-49.68,126.85-76.65,181.1-31.3,63-58.5,120.26-74.34,184C6.06,658.54-7.35,729.34,4.54,803.67c16.28,101.71,63.51,185.89,140.39,250.18,77.41,64.74,164,94.89,272.64,94.89,2.22,0,4.47,0,6.7,0,40.69-.42,90.22-11.65,135.87-30.82C737.12,1043.58,837.15,858.18,803.4,667ZM542.26,1075.28c-39.76,16.69-84.05,26.87-118.5,27.22-100.1,1.16-179.23-25.58-249.19-84.09-68.08-56.94-109.94-131.65-124.41-222-10.58-66.15,1.92-131.43,17-192.12C81.88,545.06,108,490.17,138,429.68c27.74-55.78,53.48-116.58,78.7-185.87,20.64-56.7,50.08-105.37,87.51-144.65,31.81-33.39,60.82-49.6,94.07-52.57,2.83-.26,5.65-.38,8.45-.38,22.07,0,43.14,7.89,66.32,24.83,46.95,34.32,83.31,84.17,111.16,152.4,7.55,18.48,15,37.4,22.24,55.75,21.88,55.49,44.5,112.86,73,167.28A786.53,786.53,0,0,1,757.9,675.06C787.87,844.81,699.2,1009.39,542.26,1075.28Z"/><path class="cls-1" d="M491.17,520c-51.78-51.08-119.13-51.38-171.6-.76-58.76,56.68-93.24,128.37-102.5,213.09-6.34,58.09,13.55,114.54,54.56,154.87A192.07,192.07,0,0,0,405.23,942a184,184,0,0,0,22.91-1.44c43.87-5.54,85-27,115.84-60.53a187.41,187.41,0,0,0,50-126.46c.42-9.32-1-19.35-2.42-29.05C579.75,642.9,546,574.08,491.17,520Zm56.6,231.88,0,.93a141.59,141.59,0,0,1-37.76,96c-23.45,25.47-54.58,41.81-87.64,46-42.8,5.4-87-9.73-118.32-40.49s-45.9-72.32-41-116.91c8-73.69,37.86-135.88,88.64-184.86,16.44-15.87,34.94-24.25,53.48-24.25,18.71,0,37.24,8.52,53.59,24.66,48.15,47.49,76.64,105.84,87.09,178.38C546.85,738.52,548,746.73,547.77,751.88Z"/></g></g></svg>